# xmcd
#
# Track frame offsets:
#	150
#	11331
#	26027
#	38734
#	61940
#	91686
#	109656
#	123527
#	137010
#	156673
#	172928
#	189175
#	206290
#	224343
#
# Disc length: 3339 seconds
#
# Revision: 0
# Processed by: cddbd v1.5.2PL0 Copyright (c) Steve Scherf et al.
# Submitted via: EasyCDDAExtractor 11.1.0.1
#
DISCID=b30d090e
DTITLE=Lemon Squeezin' Daddies - Shake 'N' Shimmy
DYEAR=2001
DGENRE=Blues
TTITLE0=Too Close Together
TTITLE1=29 Ways (To My Baby's Door)
TTITLE2=Shake 'N' Shimmy
TTITLE3=Down So Long
TTITLE4=Bring It On Home
TTITLE5=(I'm A) King Bee
TTITLE6=Just Keep Lovin Her
TTITLE7=Juke
TTITLE8=Blues I Got
TTITLE9=Same Thing
TTITLE10=I'm Ready
TTITLE11=Just A Little Bit
TTITLE12=Lemon Squeezin' Daddy
TTITLE13=Rock Me
EXTD=
EXTT0=
EXTT1=
EXTT2=
EXTT3=
EXTT4=
EXTT5=
EXTT6=
EXTT7=
EXTT8=
EXTT9=
EXTT10=
EXTT11=
EXTT12=
EXTT13=
PLAYORDER=
